<svg width="42" height="50" viewBox="0 0 42 50" fill="none" xmlns="http://www.w3.org/2000/svg">
<path d="M40.5553 2.6726H34.787C34.8048 2.08096 34.8142 1.48591 34.8152 0.887458C34.8152 0.770915 34.7919 0.655513 34.7465 0.547842C34.7011 0.440171 34.6345 0.342338 34.5506 0.25993C34.4667 0.177522 34.3672 0.112153 34.2575 0.0675538C34.1479 0.0229549 34.0305 0 33.9118 0H8.08891C7.97027 0 7.8528 0.0229549 7.74319 0.0675538C7.63359 0.112153 7.534 0.177522 7.45011 0.25993C7.36622 0.342338 7.29968 0.440171 7.25428 0.547842C7.20888 0.655513 7.18551 0.770915 7.18551 0.887458C7.18551 1.48543 7.19493 2.08047 7.21376 2.6726H1.44543C1.06208 2.6726 0.694428 2.8222 0.423357 3.08849C0.152286 3.35477 0 3.71594 0 4.09253C0 8.48307 1.21493 12.748 3.42026 16.1013C4.4902 17.7287 5.73636 19.0602 7.12454 20.0595C8.59897 21.1208 10.1567 21.7511 11.7538 21.9344L11.7627 21.857C13.3896 24.8196 15.3227 26.9115 17.4284 28.0181C18.3816 28.6214 18.4657 30.2502 18.4292 31.1771C18.3705 32.6635 17.9437 34.4436 17.2492 36.1374H11.501C11.2614 36.1374 11.0316 36.2309 10.8622 36.3973C10.6928 36.5638 10.5976 36.7895 10.5976 37.0249V44.1596H8.02199C7.90339 44.1596 7.78595 44.1825 7.67639 44.2271C7.56682 44.2718 7.46728 44.3371 7.38345 44.4196C7.29963 44.502 7.23315 44.5998 7.18783 44.7075C7.14252 44.8151 7.11924 44.9305 7.11934 45.047V49.1125C7.11924 49.229 7.14252 49.3444 7.18783 49.4521C7.23315 49.5598 7.29963 49.6576 7.38345 49.74C7.46728 49.8224 7.56682 49.8878 7.67639 49.9324C7.78595 49.977 7.90339 50 8.02199 50H33.8449C34.0845 50 34.3143 49.9065 34.4837 49.7401C34.6531 49.5736 34.7483 49.3479 34.7483 49.1125V45.047C34.7483 44.8117 34.6531 44.5859 34.4837 44.4195C34.3143 44.2531 34.0845 44.1596 33.8449 44.1596H31.4032V37.0249C31.4032 36.7895 31.308 36.5638 31.1386 36.3973C30.9691 36.2309 30.7394 36.1374 30.4998 36.1374H24.756C23.2109 32.4503 23.1306 28.8654 24.6229 27.9947C26.7048 26.8816 28.6238 24.7991 30.2373 21.8592L30.2462 21.9366C31.8433 21.7533 33.401 21.1229 34.8755 20.0616C36.2636 19.0624 37.5098 17.7309 38.5797 16.1035C40.7843 12.7502 42 8.48526 42 4.09472C42.0003 3.90813 41.9631 3.72331 41.8907 3.55083C41.8182 3.37835 41.7119 3.22159 41.5777 3.08952C41.4435 2.95744 41.2842 2.85264 41.1087 2.7811C40.9333 2.70956 40.7453 2.67269 40.5553 2.6726ZM5.84864 14.5609C4.17792 12.0197 3.16448 8.84901 2.93993 5.51173H7.36917C7.75357 10.3171 8.73504 14.8048 10.237 18.5862C8.63912 17.8631 7.10298 16.468 5.84864 14.5609ZM36.1521 14.5609C34.8978 16.468 33.3624 17.8631 31.7653 18.5869C33.2665 14.8048 34.2479 10.3171 34.6323 5.51246H39.0608C38.8363 8.84901 37.8228 12.0197 36.1521 14.5609Z" fill="#FFCC00"/>
</svg>
