<svg width="180" height="180" viewBox="0 0 180 180" fill="none" xmlns="http://www.w3.org/2000/svg">
<g opacity="0.35" clip-path="url(#clip0_440_3279)">
<path d="M36.1013 118.166L88.7837 153.292C89.1443 153.531 89.5676 153.659 90.0005 153.659C90.4334 153.659 90.8566 153.531 91.2173 153.292L143.9 118.166C144.2 117.966 144.447 117.695 144.618 117.376C144.788 117.058 144.878 116.702 144.879 116.341V63.6587C144.878 63.2975 144.788 62.942 144.618 62.6237C144.447 62.3053 144.2 62.034 143.9 61.8335L91.2173 26.7119C90.8566 26.4725 90.4334 26.3447 90.0005 26.3447C89.5676 26.3447 89.1443 26.4725 88.7837 26.7119L36.1013 61.8335C35.8007 62.034 35.5542 62.3053 35.3834 62.6237C35.2126 62.942 35.1229 63.2975 35.1221 63.6587V116.341C35.1229 116.702 35.2126 117.058 35.3834 117.376C35.5542 117.695 35.8007 117.966 36.1013 118.166ZM140.501 115.168L92.1965 147.366V99.9539L140.487 67.7591L140.501 115.168ZM90.0005 31.1723L138.726 63.6587L90.0005 96.1451L41.2745 63.6587L90.0005 31.1723ZM39.5141 67.7591L87.8045 99.9539V147.366L39.5141 115.168V67.7591Z" fill="#757575"/>
<path d="M2.196 30.7332C2.77813 30.7322 3.33613 30.5006 3.74776 30.089C4.15938 29.6773 4.39105 29.1193 4.392 28.5372V6.5772C4.392 5.99574 4.62299 5.43809 5.03414 5.02694C5.4453 4.61578 6.00294 4.3848 6.5844 4.3848H28.5444C29.1268 4.3848 29.6854 4.15343 30.0972 3.7416C30.509 3.32977 30.7404 2.77121 30.7404 2.18879C30.7404 1.60638 30.509 1.04782 30.0972 0.635992C29.6854 0.224163 29.1268 -0.00720215 28.5444 -0.00720215H6.5844C4.83774 -0.00434215 3.16354 0.691277 1.92914 1.92703C0.694737 3.16278 0.000951077 4.83774 0 6.5844V28.5444C0.00285135 29.1253 0.235358 29.6814 0.646776 30.0915C1.05819 30.5016 1.61512 30.7323 2.196 30.7332Z" fill="#757575"/>
<path d="M151.463 4.392H173.423C173.711 4.392 173.996 4.44871 174.262 4.55889C174.528 4.66907 174.77 4.83056 174.973 5.03414C175.177 5.23773 175.338 5.47942 175.448 5.74541C175.559 6.0114 175.615 6.29649 175.615 6.5844V28.5444C175.615 29.1268 175.847 29.6854 176.259 30.0972C176.67 30.509 177.229 30.7404 177.811 30.7404C178.394 30.7404 178.952 30.509 179.364 30.0972C179.776 29.6854 180.007 29.1268 180.007 28.5444V6.5844C180.005 4.83774 179.309 3.16354 178.073 1.92914C176.837 0.694737 175.162 0.000951077 173.416 0H151.456C150.873 0 150.315 0.231365 149.903 0.643195C149.491 1.05502 149.26 1.61359 149.26 2.196C149.26 2.77842 149.491 3.33698 149.903 3.74881C150.315 4.16064 150.873 4.392 151.456 4.392H151.463Z" fill="#757575"/>
<path d="M6.5844 180H28.5444C29.1268 180 29.6854 179.769 30.0972 179.357C30.509 178.945 30.7404 178.386 30.7404 177.804C30.7404 177.222 30.509 176.663 30.0972 176.251C29.6854 175.839 29.1268 175.608 28.5444 175.608H6.5844C6.00294 175.608 5.4453 175.377 5.03414 174.966C4.62299 174.555 4.392 173.997 4.392 173.416V151.456C4.392 151.167 4.3352 150.882 4.22484 150.615C4.11448 150.349 3.95273 150.107 3.74881 149.903C3.54489 149.699 3.3028 149.537 3.03637 149.427C2.76994 149.316 2.48439 149.26 2.196 149.26C1.90762 149.26 1.62206 149.316 1.35563 149.427C1.08919 149.537 0.847112 149.699 0.643195 149.903C0.439277 150.107 0.277522 150.349 0.167162 150.615C0.0568032 150.882 -2.43088e-08 151.167 0 151.456V173.416C0.00285588 175.161 0.697486 176.834 1.93168 178.068C3.16588 179.302 4.83899 179.997 6.5844 180Z" fill="#757575"/>
<path d="M151.463 180H173.423C175.167 179.995 176.838 179.3 178.071 178.066C179.304 176.832 179.997 175.16 180 173.416V151.456C180 150.873 179.769 150.315 179.357 149.903C178.945 149.491 178.387 149.26 177.804 149.26C177.222 149.26 176.663 149.491 176.251 149.903C175.84 150.315 175.608 150.873 175.608 151.456V173.416C175.608 173.997 175.377 174.555 174.966 174.966C174.555 175.377 173.997 175.608 173.416 175.608H151.456C150.873 175.608 150.315 175.839 149.903 176.251C149.491 176.663 149.26 177.222 149.26 177.804C149.26 178.386 149.491 178.945 149.903 179.357C150.315 179.769 150.873 180 151.456 180H151.463Z" fill="#757575"/>
</g>
<defs>
<clipPath id="clip0_440_3279">
<rect width="180" height="180" fill="white"/>
</clipPath>
</defs>
</svg>
