<svg width="13" height="13" viewBox="0 0 13 13" fill="none" xmlns="http://www.w3.org/2000/svg">
<path d="M10.875 0.25H2.125C1.62772 0.25 1.15081 0.447544 0.799175 0.799175C0.447544 1.15081 0.25 1.62772 0.25 2.125V8.375C0.25 8.87228 0.447544 9.34919 0.799175 9.70083C1.15081 10.0525 1.62772 10.25 2.125 10.25H9.36875L11.6813 12.5687C11.7397 12.6267 11.8089 12.6725 11.8851 12.7036C11.9612 12.7347 12.0427 12.7505 12.125 12.75C12.207 12.7521 12.2883 12.735 12.3625 12.7C12.4766 12.6531 12.5743 12.5735 12.6433 12.4712C12.7123 12.3688 12.7494 12.2484 12.75 12.125V2.125C12.75 1.62772 12.5525 1.15081 12.2008 0.799175C11.8492 0.447544 11.3723 0.25 10.875 0.25ZM11.5 10.6187L10.0687 9.18125C10.0103 9.12332 9.94109 9.0775 9.86494 9.04639C9.78879 9.01529 9.70725 8.99952 9.625 9H2.125C1.95924 9 1.80027 8.93415 1.68306 8.81694C1.56585 8.69973 1.5 8.54076 1.5 8.375V2.125C1.5 1.95924 1.56585 1.80027 1.68306 1.68306C1.80027 1.56585 1.95924 1.5 2.125 1.5H10.875C11.0408 1.5 11.1997 1.56585 11.3169 1.68306C11.4342 1.80027 11.5 1.95924 11.5 2.125V10.6187Z" fill="white"/>
</svg>
