<svg width="22" height="26" viewBox="0 0 22 26" fill="none" xmlns="http://www.w3.org/2000/svg">
<path d="M21.5874 7.21256C21.5874 7.21256 21.5874 7.21256 21.5874 7.11256L21.5124 6.92506C21.4863 6.88528 21.4571 6.84765 21.4249 6.81256C21.3915 6.75964 21.3539 6.70948 21.3124 6.66256L21.1999 6.57506L20.9999 6.47506L11.6249 0.687562C11.4263 0.563396 11.1967 0.497559 10.9624 0.497559C10.7282 0.497559 10.4986 0.563396 10.2999 0.687562L0.999937 6.47506L0.887437 6.57506L0.774937 6.66256C0.733501 6.70948 0.695882 6.75964 0.662437 6.81256C0.630302 6.84765 0.601041 6.88528 0.574937 6.92506L0.499937 7.11256C0.499937 7.11256 0.499937 7.11256 0.499937 7.21256C0.487651 7.32055 0.487651 7.42958 0.499937 7.53756V18.4626C0.499512 18.675 0.553232 18.884 0.656026 19.0699C0.75882 19.2558 0.907296 19.4125 1.08744 19.5251L10.4624 25.3126C10.5201 25.3482 10.5836 25.3736 10.6499 25.3876C10.6499 25.3876 10.7124 25.3876 10.7499 25.3876C10.9614 25.4546 11.1885 25.4546 11.3999 25.3876C11.3999 25.3876 11.4624 25.3876 11.4999 25.3876C11.5663 25.3736 11.6297 25.3482 11.6874 25.3126L20.9999 19.5251C21.1801 19.4125 21.3286 19.2558 21.4313 19.0699C21.5341 18.884 21.5879 18.675 21.5874 18.4626V7.53756C21.5997 7.42958 21.5997 7.32055 21.5874 7.21256ZM9.74994 22.0126L2.87494 17.7626V9.78756L9.74994 14.0251V22.0126ZM10.9999 11.8626L3.99994 7.53756L10.9999 3.22506L17.9999 7.53756L10.9999 11.8626ZM19.1249 17.7626L12.2499 22.0126V14.0251L19.1249 9.78756V17.7626Z" fill="#757575"/>
</svg>
