<svg width="24" height="26" viewBox="0 0 24 26" fill="none" xmlns="http://www.w3.org/2000/svg">
<path d="M5.38635 9.01582L12.242 2.16016C12.3595 2.04265 12.4527 1.90316 12.5163 1.74963C12.5799 1.59611 12.6126 1.43156 12.6126 1.26539C12.6126 1.09922 12.5799 0.93467 12.5163 0.781146C12.4527 0.627622 12.3595 0.488126 12.242 0.370624C12.1245 0.253122 11.985 0.159914 11.8315 0.096322C11.678 0.0327302 11.5134 0 11.3473 0C11.0117 0 10.6898 0.133317 10.4525 0.370624L4.49159 6.30632L2.16015 4.0001C1.92285 3.76279 1.60099 3.62947 1.26539 3.62947C0.929787 3.62947 0.60793 3.76279 0.370624 4.0001C0.133317 4.2374 2.50043e-09 4.55926 0 4.89486C-2.50043e-09 5.23046 0.133317 5.55232 0.370624 5.78963L3.59682 9.01582C3.71397 9.13394 3.85336 9.2277 4.00693 9.29168C4.1605 9.35566 4.32522 9.3886 4.49159 9.3886C4.65795 9.3886 4.82267 9.35566 4.97624 9.29168C5.12981 9.2277 5.2692 9.13394 5.38635 9.01582ZM20.1689 5.04609H13.2376C12.9034 5.04609 12.5828 5.17886 12.3465 5.4152C12.1101 5.65154 11.9774 5.97209 11.9774 6.30632C11.9774 6.64056 12.1101 6.9611 12.3465 7.19744C12.5828 7.43378 12.9034 7.56656 13.2376 7.56656H20.1689C20.5031 7.56656 20.8237 7.69933 21.06 7.93567C21.2963 8.17201 21.4291 8.49255 21.4291 8.82679V21.0763L19.4506 19.2489C19.2181 19.0313 18.912 18.9098 18.5936 18.9087H7.56655C7.23232 18.9087 6.91177 18.7759 6.67543 18.5395C6.4391 18.3032 6.30632 17.9827 6.30632 17.6484V13.2376C6.30632 12.9034 6.17355 12.5828 5.93721 12.3465C5.70087 12.1101 5.38032 11.9774 5.04609 11.9774C4.71185 11.9774 4.39131 12.1101 4.15497 12.3465C3.91863 12.5828 3.78586 12.9034 3.78586 13.2376V17.6484C3.78586 18.6511 4.18418 19.6128 4.8932 20.3218C5.60221 21.0308 6.56385 21.4291 7.56655 21.4291H18.1021L21.8828 24.8696C22.1152 25.0872 22.4214 25.2087 22.7398 25.2098C22.9126 25.2079 23.0836 25.1737 23.2439 25.109C23.4693 25.0106 23.661 24.8484 23.7954 24.6424C23.9297 24.4364 24.0008 24.1955 24 23.9496V8.82679C24 8.32603 23.9006 7.83025 23.7075 7.36824C23.5143 6.90623 23.2313 6.48719 22.8749 6.13545C22.5185 5.78371 22.0957 5.50629 21.6312 5.31928C21.1666 5.13227 20.6696 5.03941 20.1689 5.04609Z" fill="#96969C"/>
</svg>
