<svg width="40" height="44" viewBox="0 0 40 44" fill="none" xmlns="http://www.w3.org/2000/svg">
<path fill-rule="evenodd" clip-rule="evenodd" d="M7.98799 32.8452C8.30055 33.1578 8.72448 33.3334 9.1665 33.3334H19.1665C19.6085 33.3334 20.0325 33.509 20.345 33.8215C20.6576 34.1341 20.8332 34.558 20.8332 35C20.8332 35.4421 20.6576 35.866 20.345 36.1786C20.0325 36.4911 19.6085 36.6667 19.1665 36.6667H9.1665C7.84042 36.6667 6.56865 36.1399 5.63097 35.2022C4.69329 34.2646 4.1665 32.9928 4.1665 31.6667V8.33337C4.1665 7.00729 4.69329 5.73552 5.63097 4.79784C6.56865 3.86016 7.84042 3.33337 9.1665 3.33337H19.2665C19.4469 3.36824 19.6211 3.43005 19.7832 3.51671C19.8383 3.50706 19.8947 3.50706 19.9498 3.51671C20.1212 3.59684 20.2787 3.70373 20.4165 3.83337L30.4165 13.8334C30.5461 13.9711 30.653 14.1287 30.7332 14.3V14.45C30.7823 14.5961 30.8158 14.7469 30.8332 14.9V15V25C30.8332 25.4421 30.6576 25.866 30.345 26.1786C30.0325 26.4911 29.6085 26.6667 29.1665 26.6667C28.7245 26.6667 28.3006 26.4911 27.988 26.1786C27.6754 25.866 27.4998 25.4421 27.4998 25V16.6667H22.4998C21.1738 16.6667 19.902 16.1399 18.9643 15.2022C18.0266 14.2646 17.4998 12.9928 17.4998 11.6667V6.66671H9.1665C8.72448 6.66671 8.30055 6.8423 7.98799 7.15486C7.67543 7.46742 7.49984 7.89135 7.49984 8.33337V31.6667C7.49984 32.1087 7.67543 32.5327 7.98799 32.8452ZM25.1498 13.3334L20.8332 9.01671V11.6667C20.8332 12.1087 21.0088 12.5327 21.3213 12.8452C21.6339 13.1578 22.0578 13.3334 22.4998 13.3334H25.1498ZM23.6783 22.8452C23.3658 23.1578 22.9419 23.3334 22.4998 23.3334H12.4998C12.0578 23.3334 11.6339 23.1578 11.3213 22.8452C11.0088 22.5327 10.8332 22.1087 10.8332 21.6667C10.8332 21.2247 11.0088 20.8008 11.3213 20.4882C11.6339 20.1756 12.0578 20 12.4998 20H22.4998C22.9419 20 23.3658 20.1756 23.6783 20.4882C23.9909 20.8008 24.1665 21.2247 24.1665 21.6667C24.1665 22.1087 23.9909 22.5327 23.6783 22.8452ZM12.4998 26.6667H19.1665C19.6085 26.6667 20.0325 26.8423 20.345 27.1549C20.6576 27.4674 20.8332 27.8913 20.8332 28.3334C20.8332 28.7754 20.6576 29.1993 20.345 29.5119C20.0325 29.8244 19.6085 30 19.1665 30H12.4998C12.0578 30 11.6339 29.8244 11.3213 29.5119C11.0088 29.1993 10.8332 28.7754 10.8332 28.3334C10.8332 27.8913 11.0088 27.4674 11.3213 27.1549C11.6339 26.8423 12.0578 26.6667 12.4998 26.6667ZM14.1665 16.6667H12.4998C12.0578 16.6667 11.6339 16.4911 11.3213 16.1786C11.0088 15.866 10.8332 15.4421 10.8332 15C10.8332 14.558 11.0088 14.1341 11.3213 13.8215C11.6339 13.509 12.0578 13.3334 12.4998 13.3334H14.1665C14.6085 13.3334 15.0325 13.509 15.345 13.8215C15.6576 14.1341 15.8332 14.558 15.8332 15C15.8332 15.4421 15.6576 15.866 15.345 16.1786C15.0325 16.4911 14.6085 16.6667 14.1665 16.6667Z" fill="white"/>
<path d="M26.8553 39.7767C26.7952 39.8385 26.7393 39.9036 26.6878 39.9717C26.635 40.0442 26.5928 40.1229 26.5622 40.2057C26.522 40.2794 26.4938 40.3583 26.4785 40.4397C26.4716 40.5263 26.4716 40.6132 26.4785 40.6997C26.4738 40.8703 26.512 41.0394 26.5901 41.1937C26.6528 41.355 26.7528 41.5015 26.883 41.6229C27.0132 41.7442 27.1705 41.8373 27.3437 41.8957C27.5107 41.9645 27.6913 42 27.874 42C28.0566 42 28.2372 41.9645 28.4042 41.8957C28.5774 41.8373 28.7347 41.7442 28.8649 41.6229C28.9951 41.5015 29.0951 41.355 29.1578 41.1937C29.2198 41.0357 29.2482 40.8679 29.2415 40.6997C29.2426 40.5286 29.2074 40.359 29.1379 40.2007C29.0685 40.0423 28.9662 39.8982 28.8368 39.7767C28.7071 39.6549 28.5528 39.5582 28.3827 39.4922C28.2127 39.4262 28.0303 39.3922 27.846 39.3922C27.6618 39.3922 27.4794 39.4262 27.3094 39.4922C27.1393 39.5582 26.985 39.6549 26.8553 39.7767ZM27.846 29C27.1107 28.9996 26.3882 29.1796 25.7513 29.5219C25.1144 29.8642 24.5855 30.3567 24.2178 30.95C24.1168 31.0979 24.049 31.2634 24.0185 31.4364C23.988 31.6094 23.9953 31.7863 24.0401 31.9566C24.0848 32.1269 24.1661 32.287 24.2791 32.4273C24.392 32.5676 24.5342 32.6851 24.6971 32.7728C24.8601 32.8606 25.0404 32.9167 25.2272 32.9378C25.414 32.959 25.6035 32.9447 25.7843 32.8958C25.965 32.847 26.1333 32.7646 26.279 32.6536C26.4247 32.5426 26.5447 32.4053 26.632 32.2499C26.7549 32.0515 26.932 31.8869 27.1452 31.7728C27.3584 31.6587 27.6002 31.599 27.846 31.5999C28.2162 31.5999 28.5711 31.7369 28.8328 31.9807C29.0945 32.2245 29.2415 32.5551 29.2415 32.8999C29.2415 33.2447 29.0945 33.5753 28.8328 33.8191C28.5711 34.0629 28.2162 34.1999 27.846 34.1999C27.4759 34.1999 27.121 34.3368 26.8593 34.5806C26.5976 34.8244 26.4506 35.1551 26.4506 35.4998V36.7998C26.4506 37.1446 26.5976 37.4752 26.8593 37.719C27.121 37.9628 27.4759 38.0998 27.846 38.0998C28.2162 38.0998 28.5711 37.9628 28.8328 37.719C29.0945 37.4752 29.2415 37.1446 29.2415 36.7998V36.5658C30.1644 36.2539 30.9403 35.6496 31.4335 34.8588C31.9267 34.0679 32.1058 33.1408 31.9395 32.2394C31.7733 31.338 31.2722 30.5197 30.524 29.9275C29.7757 29.3354 28.8278 29.0071 27.846 29Z" fill="#FF3B30"/>
</svg>
