<svg width="40" height="40" viewBox="0 0 40 40" fill="none" xmlns="http://www.w3.org/2000/svg">
<path fill-rule="evenodd" clip-rule="evenodd" d="M7.98799 32.8452C8.30055 33.1577 8.72448 33.3333 9.1665 33.3333H19.1665C19.6085 33.3333 20.0325 33.5089 20.345 33.8215C20.6576 34.134 20.8332 34.558 20.8332 35C20.8332 35.442 20.6576 35.866 20.345 36.1785C20.0325 36.4911 19.6085 36.6667 19.1665 36.6667H9.1665C7.84042 36.6667 6.56865 36.1399 5.63097 35.2022C4.69329 34.2645 4.1665 32.9927 4.1665 31.6667V8.33333C4.1665 7.00725 4.69329 5.73548 5.63097 4.7978C6.56865 3.86012 7.84042 3.33333 9.1665 3.33333H19.2665C19.4469 3.3682 19.6211 3.43 19.7832 3.51667C19.8383 3.50701 19.8947 3.50701 19.9498 3.51667C20.1212 3.5968 20.2787 3.70369 20.4165 3.83333L30.4165 13.8333C30.5461 13.9711 30.653 14.1286 30.7332 14.3V14.45C30.7823 14.5961 30.8158 14.7469 30.8332 14.9V15V25C30.8332 25.442 30.6576 25.8659 30.345 26.1785C30.0325 26.4911 29.6085 26.6667 29.1665 26.6667C28.7245 26.6667 28.3006 26.4911 27.988 26.1785C27.6754 25.8659 27.4998 25.442 27.4998 25V16.6667H22.4998C21.1738 16.6667 19.902 16.1399 18.9643 15.2022C18.0266 14.2645 17.4998 12.9927 17.4998 11.6667V6.66667H9.1665C8.72448 6.66667 8.30055 6.84226 7.98799 7.15482C7.67543 7.46738 7.49984 7.8913 7.49984 8.33333V31.6667C7.49984 32.1087 7.67543 32.5326 7.98799 32.8452ZM25.1498 13.3333L20.8332 9.01667V11.6667C20.8332 12.1087 21.0088 12.5326 21.3213 12.8452C21.6339 13.1577 22.0578 13.3333 22.4998 13.3333H25.1498ZM23.6783 22.8452C23.3658 23.1577 22.9419 23.3333 22.4998 23.3333H12.4998C12.0578 23.3333 11.6339 23.1577 11.3213 22.8452C11.0088 22.5326 10.8332 22.1087 10.8332 21.6667C10.8332 21.2246 11.0088 20.8007 11.3213 20.4882C11.6339 20.1756 12.0578 20 12.4998 20H22.4998C22.9419 20 23.3658 20.1756 23.6783 20.4882C23.9909 20.8007 24.1665 21.2246 24.1665 21.6667C24.1665 22.1087 23.9909 22.5326 23.6783 22.8452ZM12.4998 26.6667H19.1665C19.6085 26.6667 20.0325 26.8423 20.345 27.1548C20.6576 27.4674 20.8332 27.8913 20.8332 28.3333C20.8332 28.7754 20.6576 29.1993 20.345 29.5118C20.0325 29.8244 19.6085 30 19.1665 30H12.4998C12.0578 30 11.6339 29.8244 11.3213 29.5118C11.0088 29.1993 10.8332 28.7754 10.8332 28.3333C10.8332 27.8913 11.0088 27.4674 11.3213 27.1548C11.6339 26.8423 12.0578 26.6667 12.4998 26.6667ZM14.1665 16.6667H12.4998C12.0578 16.6667 11.6339 16.4911 11.3213 16.1785C11.0088 15.8659 10.8332 15.442 10.8332 15C10.8332 14.558 11.0088 14.134 11.3213 13.8215C11.6339 13.5089 12.0578 13.3333 12.4998 13.3333H14.1665C14.6085 13.3333 15.0325 13.5089 15.345 13.8215C15.6576 14.134 15.8332 14.558 15.8332 15C15.8332 15.442 15.6576 15.8659 15.345 16.1785C15.0325 16.4911 14.6085 16.6667 14.1665 16.6667Z" fill="white"/>
<path d="M33 28L26.125 35L23 31.8182" stroke="#34C759" stroke-width="3" stroke-linecap="round" stroke-linejoin="round"/>
</svg>
