<svg width="22" height="21" viewBox="0 0 22 21" fill="none" xmlns="http://www.w3.org/2000/svg">
<path d="M4.22104 20.8184C4.62719 21.135 5.14232 21.0262 5.75651 20.5809L10.9969 16.7319L16.2473 20.5809C16.8615 21.0262 17.3667 21.135 17.7828 20.8184C18.1889 20.5117 18.2781 20.007 18.0304 19.2847L15.96 13.1302L21.25 9.33068C21.8642 8.89531 22.1118 8.44016 21.9533 7.94542C21.7948 7.47048 21.3292 7.23301 20.5664 7.2429L14.0778 7.28248L12.1065 1.09831C11.8687 0.366103 11.5121 0 10.9969 0C10.4917 0 10.1351 0.366103 9.89735 1.09831L7.92599 7.28248L1.43737 7.2429C0.674581 7.23301 0.208984 7.47048 0.0504836 7.94542C-0.117923 8.44016 0.13964 8.89531 0.753831 9.33068L6.04379 13.1302L3.97338 19.2847C3.72572 20.007 3.81488 20.5117 4.22104 20.8184Z" fill="#FFCC00"/>
</svg>
