<svg width="22" height="21" viewBox="0 0 22 21" fill="none" xmlns="http://www.w3.org/2000/svg">
    <path
        d="M4.22104 20.8184C4.62719 21.135 5.14232 21.0262 5.75651 20.5809L10.9969 16.7319L16.2473 20.5809C16.8615 21.0262 17.3667 21.135 17.7828 20.8184C18.1889 20.5117 18.2781 20.007 18.0304 19.2847L15.96 13.1302L21.25 9.33068C21.8642 8.89531 22.1118 8.44016 21.9533 7.94542C21.7948 7.47048 21.3292 7.23301 20.5664 7.2429L14.0778 7.28248L12.1065 1.09831C11.8687 0.366103 11.5121 0 10.9969 0C10.4917 0 10.1351 0.366103 9.89735 1.09831L7.92599 7.28248L1.43737 7.2429C0.674581 7.23301 0.208984 7.47048 0.0504836 7.94542C-0.117923 8.44016 0.13964 8.89531 0.753831 9.33068L6.04379 13.1302L3.97338 19.2847C3.72572 20.007 3.81488 20.5117 4.22104 20.8184ZM5.64754 18.8593C5.62773 18.8395 5.63764 18.8296 5.64754 18.7702L7.6189 13.1104C7.75758 12.7246 7.67833 12.4178 7.33161 12.1803L2.39828 8.77658C2.34874 8.74689 2.33884 8.7271 2.34875 8.69742C2.35865 8.66774 2.37846 8.66774 2.4379 8.66774L8.43121 8.77658C8.83737 8.78647 9.09493 8.61826 9.22372 8.21258L10.9474 2.48356C10.9573 2.4242 10.9771 2.40441 10.9969 2.40441C11.0267 2.40441 11.0465 2.4242 11.0564 2.48356L12.7801 8.21258C12.9089 8.61826 13.1664 8.78647 13.5726 8.77658L19.5659 8.66774C19.6253 8.66774 19.6451 8.66774 19.655 8.69742C19.665 8.7271 19.6451 8.74689 19.6055 8.77658L14.6722 12.1803C14.3255 12.4178 14.2462 12.7246 14.3849 13.1104L16.3563 18.7702C16.3662 18.8296 16.3761 18.8395 16.3563 18.8593C16.3364 18.8889 16.3067 18.8691 16.2671 18.8395L11.5022 15.2081C11.1852 14.9607 10.8186 14.9607 10.5016 15.2081L5.7367 18.8395C5.69707 18.8691 5.66736 18.8889 5.64754 18.8593Z"
        fill="#FFCC00" />
    <path d="M11 16V1L9 7.5L8 8H2L1 8.5L7 13L5 20L11 16Z" fill="#FFCC00" />
</svg>