<svg width="19" height="25" viewBox="0 0 19 25" fill="none" xmlns="http://www.w3.org/2000/svg">
<path d="M13.6667 9.375C13.6667 11.676 11.801 13.5417 9.5 13.5417C7.19896 13.5417 5.33333 11.676 5.33333 9.375C5.33333 7.07396 7.19896 5.20833 9.5 5.20833C11.801 5.20833 13.6667 7.07396 13.6667 9.375ZM11.5833 9.375C11.5833 8.22604 10.65 7.29167 9.5 7.29167C8.35 7.29167 7.41667 8.22604 7.41667 9.375C7.41667 10.524 8.35 11.4583 9.5 11.4583C10.65 11.4583 11.5833 10.524 11.5833 9.375ZM2.20833 9.375C2.20833 13.3958 5.48021 16.6667 9.5 16.6667C13.5198 16.6667 16.7917 13.3958 16.7917 9.375C16.7917 5.35417 13.5198 2.08333 9.5 2.08333C5.48021 2.08333 2.20833 5.35417 2.20833 9.375ZM18.875 9.375C18.875 14.5521 14.6781 18.75 9.5 18.75C4.32188 18.75 0.125 14.5521 0.125 9.375C0.125 4.19792 4.32188 0 9.5 0C14.6781 0 18.875 4.19792 18.875 9.375ZM18.4542 22.3969C19.5031 23.5865 18.4396 25.1875 16.9458 24.9812C15.076 24.726 13.575 23.2083 9.50104 23.2083C5.42813 23.2083 3.92604 24.7271 2.05729 24.9812C0.561458 25.1875 -0.501042 23.5854 0.547917 22.3969L3.56667 18.9708C4.14896 19.375 4.77083 19.726 5.43125 20.0062L3.32188 22.4C4.67083 21.8542 6.51458 21.124 9.50208 21.124C12.4896 21.124 14.3333 21.8531 15.6823 22.399L13.5729 20.0052C14.2333 19.724 14.8552 19.374 15.4375 18.9698L18.4542 22.3969Z" fill="#757575"/>
</svg>
