<svg width="21" height="23" viewBox="0 0 21 23" fill="none" xmlns="http://www.w3.org/2000/svg">
<path d="M10.5002 18.7917C10.7062 18.7917 10.9076 18.7307 11.0789 18.6162C11.2502 18.5017 11.3837 18.339 11.4625 18.1487C11.5414 17.9584 11.562 17.7489 11.5218 17.5469C11.4816 17.3448 11.3824 17.1592 11.2367 17.0135C11.0911 16.8678 10.9054 16.7686 10.7034 16.7284C10.5013 16.6882 10.2919 16.7089 10.1015 16.7877C9.91119 16.8665 9.74851 17.0001 9.63405 17.1714C9.51959 17.3427 9.4585 17.5441 9.4585 17.7501C9.4585 18.0263 9.56824 18.2913 9.76359 18.4867C9.95894 18.682 10.2239 18.7917 10.5002 18.7917ZM15.7085 18.7917C15.9145 18.7917 16.1159 18.7307 16.2872 18.6162C16.4585 18.5017 16.592 18.339 16.6709 18.1487C16.7497 17.9584 16.7703 17.7489 16.7301 17.5469C16.69 17.3448 16.5907 17.1592 16.4451 17.0135C16.2994 16.8678 16.1138 16.7686 15.9117 16.7284C15.7097 16.6882 15.5002 16.7089 15.3099 16.7877C15.1195 16.8665 14.9568 17.0001 14.8424 17.1714C14.7279 17.3427 14.6668 17.5441 14.6668 17.7501C14.6668 18.0263 14.7766 18.2913 14.9719 18.4867C15.1673 18.682 15.4322 18.7917 15.7085 18.7917ZM15.7085 14.6251C15.9145 14.6251 16.1159 14.564 16.2872 14.4495C16.4585 14.3351 16.592 14.1724 16.6709 13.982C16.7497 13.7917 16.7703 13.5823 16.7301 13.3802C16.69 13.1781 16.5907 12.9925 16.4451 12.8468C16.2994 12.7012 16.1138 12.602 15.9117 12.5618C15.7097 12.5216 15.5002 12.5422 15.3099 12.621C15.1195 12.6999 14.9568 12.8334 14.8424 13.0047C14.7279 13.176 14.6668 13.3774 14.6668 13.5834C14.6668 13.8597 14.7766 14.1246 14.9719 14.32C15.1673 14.5153 15.4322 14.6251 15.7085 14.6251ZM10.5002 14.6251C10.7062 14.6251 10.9076 14.564 11.0789 14.4495C11.2502 14.3351 11.3837 14.1724 11.4625 13.982C11.5414 13.7917 11.562 13.5823 11.5218 13.3802C11.4816 13.1781 11.3824 12.9925 11.2367 12.8468C11.0911 12.7012 10.9054 12.602 10.7034 12.5618C10.5013 12.5216 10.2919 12.5422 10.1015 12.621C9.91119 12.6999 9.74851 12.8334 9.63405 13.0047C9.51959 13.176 9.4585 13.3774 9.4585 13.5834C9.4585 13.8597 9.56824 14.1246 9.76359 14.32C9.95894 14.5153 10.2239 14.6251 10.5002 14.6251ZM17.7918 2.12508H16.7502V1.08341C16.7502 0.807148 16.6404 0.542195 16.4451 0.346845C16.2497 0.151495 15.9848 0.041748 15.7085 0.041748C15.4322 0.041748 15.1673 0.151495 14.9719 0.346845C14.7766 0.542195 14.6668 0.807148 14.6668 1.08341V2.12508H6.3335V1.08341C6.3335 0.807148 6.22375 0.542195 6.0284 0.346845C5.83305 0.151495 5.5681 0.041748 5.29183 0.041748C5.01556 0.041748 4.75061 0.151495 4.55526 0.346845C4.35991 0.542195 4.25016 0.807148 4.25016 1.08341V2.12508H3.2085C2.37969 2.12508 1.58484 2.45432 0.998788 3.04037C0.412736 3.62642 0.0834961 4.42128 0.0834961 5.25008V19.8334C0.0834961 20.6622 0.412736 21.4571 0.998788 22.0431C1.58484 22.6292 2.37969 22.9584 3.2085 22.9584H17.7918C18.6206 22.9584 19.4155 22.6292 20.0015 22.0431C20.5876 21.4571 20.9168 20.6622 20.9168 19.8334V5.25008C20.9168 4.42128 20.5876 3.62642 20.0015 3.04037C19.4155 2.45432 18.6206 2.12508 17.7918 2.12508ZM18.8335 19.8334C18.8335 20.1097 18.7238 20.3746 18.5284 20.57C18.3331 20.7653 18.0681 20.8751 17.7918 20.8751H3.2085C2.93223 20.8751 2.66728 20.7653 2.47193 20.57C2.27658 20.3746 2.16683 20.1097 2.16683 19.8334V10.4584H18.8335V19.8334ZM18.8335 8.37508H2.16683V5.25008C2.16683 4.97381 2.27658 4.70886 2.47193 4.51351C2.66728 4.31816 2.93223 4.20841 3.2085 4.20841H4.25016V5.25008C4.25016 5.52635 4.35991 5.7913 4.55526 5.98665C4.75061 6.182 5.01556 6.29175 5.29183 6.29175C5.5681 6.29175 5.83305 6.182 6.0284 5.98665C6.22375 5.7913 6.3335 5.52635 6.3335 5.25008V4.20841H14.6668V5.25008C14.6668 5.52635 14.7766 5.7913 14.9719 5.98665C15.1673 6.182 15.4322 6.29175 15.7085 6.29175C15.9848 6.29175 16.2497 6.182 16.4451 5.98665C16.6404 5.7913 16.7502 5.52635 16.7502 5.25008V4.20841H17.7918C18.0681 4.20841 18.3331 4.31816 18.5284 4.51351C18.7238 4.70886 18.8335 4.97381 18.8335 5.25008V8.37508ZM5.29183 14.6251C5.49785 14.6251 5.69925 14.564 5.87055 14.4495C6.04185 14.3351 6.17536 14.1724 6.2542 13.982C6.33305 13.7917 6.35367 13.5823 6.31348 13.3802C6.27329 13.1781 6.17408 12.9925 6.0284 12.8468C5.88272 12.7012 5.69711 12.602 5.49505 12.5618C5.29299 12.5216 5.08354 12.5422 4.8932 12.621C4.70286 12.6999 4.54018 12.8334 4.42572 13.0047C4.31126 13.176 4.25016 13.3774 4.25016 13.5834C4.25016 13.8597 4.35991 14.1246 4.55526 14.32C4.75061 14.5153 5.01556 14.6251 5.29183 14.6251ZM5.29183 18.7917C5.49785 18.7917 5.69925 18.7307 5.87055 18.6162C6.04185 18.5017 6.17536 18.339 6.2542 18.1487C6.33305 17.9584 6.35367 17.7489 6.31348 17.5469C6.27329 17.3448 6.17408 17.1592 6.0284 17.0135C5.88272 16.8678 5.69711 16.7686 5.49505 16.7284C5.29299 16.6882 5.08354 16.7089 4.8932 16.7877C4.70286 16.8665 4.54018 17.0001 4.42572 17.1714C4.31126 17.3427 4.25016 17.5441 4.25016 17.7501C4.25016 18.0263 4.35991 18.2913 4.55526 18.4867C4.75061 18.682 5.01556 18.7917 5.29183 18.7917Z" fill="#757575"/>
</svg>
