<svg width="19" height="24" viewBox="0 0 19 24" fill="none" xmlns="http://www.w3.org/2000/svg">
<path d="M5.92105 9.6H7.10526C7.41934 9.6 7.72054 9.47357 7.94263 9.24853C8.16471 9.02349 8.28947 8.71826 8.28947 8.4C8.28947 8.08174 8.16471 7.77652 7.94263 7.55147C7.72054 7.32643 7.41934 7.2 7.10526 7.2H5.92105C5.60698 7.2 5.30577 7.32643 5.08369 7.55147C4.86161 7.77652 4.73684 8.08174 4.73684 8.4C4.73684 8.71826 4.86161 9.02349 5.08369 9.24853C5.30577 9.47357 5.60698 9.6 5.92105 9.6ZM5.92105 12C5.60698 12 5.30577 12.1264 5.08369 12.3515C4.86161 12.5765 4.73684 12.8817 4.73684 13.2C4.73684 13.5183 4.86161 13.8235 5.08369 14.0485C5.30577 14.2736 5.60698 14.4 5.92105 14.4H13.0263C13.3404 14.4 13.6416 14.2736 13.8637 14.0485C14.0858 13.8235 14.2105 13.5183 14.2105 13.2C14.2105 12.8817 14.0858 12.5765 13.8637 12.3515C13.6416 12.1264 13.3404 12 13.0263 12H5.92105ZM18.9474 8.328C18.935 8.21776 18.9112 8.10916 18.8763 8.004V7.896C18.8194 7.77262 18.7434 7.6592 18.6513 7.56L11.5461 0.36C11.4482 0.266659 11.3362 0.189697 11.2145 0.132C11.1791 0.126912 11.1432 0.126912 11.1079 0.132C10.9876 0.0620895 10.8547 0.017213 10.7171 0H3.55263C2.61042 0 1.70679 0.379285 1.04054 1.05442C0.374294 1.72955 0 2.64522 0 3.6V20.4C0 21.3548 0.374294 22.2705 1.04054 22.9456C1.70679 23.6207 2.61042 24 3.55263 24H15.3947C16.337 24 17.2406 23.6207 17.9068 22.9456C18.5731 22.2705 18.9474 21.3548 18.9474 20.4V8.4C18.9474 8.4 18.9474 8.4 18.9474 8.328ZM11.8421 4.092L14.9092 7.2H13.0263C12.7122 7.2 12.411 7.07357 12.189 6.84853C11.9669 6.62348 11.8421 6.31826 11.8421 6V4.092ZM16.5789 20.4C16.5789 20.7183 16.4542 21.0235 16.2321 21.2485C16.01 21.4736 15.7088 21.6 15.3947 21.6H3.55263C3.23856 21.6 2.93735 21.4736 2.71527 21.2485C2.49319 21.0235 2.36842 20.7183 2.36842 20.4V3.6C2.36842 3.28174 2.49319 2.97652 2.71527 2.75147C2.93735 2.52643 3.23856 2.4 3.55263 2.4H9.47368V6C9.47368 6.95478 9.84798 7.87045 10.5142 8.54559C11.1805 9.22072 12.0841 9.6 13.0263 9.6H16.5789V20.4ZM13.0263 16.8H5.92105C5.60698 16.8 5.30577 16.9264 5.08369 17.1515C4.86161 17.3765 4.73684 17.6817 4.73684 18C4.73684 18.3183 4.86161 18.6235 5.08369 18.8485C5.30577 19.0736 5.60698 19.2 5.92105 19.2H13.0263C13.3404 19.2 13.6416 19.0736 13.8637 18.8485C14.0858 18.6235 14.2105 18.3183 14.2105 18C14.2105 17.6817 14.0858 17.3765 13.8637 17.1515C13.6416 16.9264 13.3404 16.8 13.0263 16.8Z" fill="#96969C"/>
</svg>
