<svg width="35" height="55" viewBox="0 0 35 55" fill="none" xmlns="http://www.w3.org/2000/svg">
<path d="M17.5 0.458374C14.1159 0.462617 10.8082 1.46454 7.99062 3.33883C5.173 5.21312 2.97056 7.87657 1.65875 10.996C0.34695 14.1155 -0.0159745 17.5525 0.615374 20.8772C1.24672 24.2018 2.84431 27.2665 5.20833 29.688V52.0834C5.2096 52.5024 5.31797 52.9142 5.52315 53.2796C5.72834 53.645 6.02352 53.9519 6.38067 54.1711C6.73781 54.3903 7.14507 54.5146 7.56376 54.5321C7.98246 54.5497 8.39868 54.4599 8.77291 54.2713L17.5 49.92L26.2271 54.2713C26.5696 54.4468 26.9485 54.5394 27.3333 54.5417C27.7936 54.5432 28.245 54.4154 28.6362 54.173C28.9905 53.9515 29.2825 53.6435 29.4847 53.2779C29.6869 52.9123 29.7925 52.5012 29.7917 52.0834V29.688C32.1557 27.2665 33.7533 24.2018 34.3846 20.8772C35.016 17.5525 34.653 14.1155 33.3412 10.996C32.0294 7.87657 29.827 5.21312 27.0094 3.33883C24.1918 1.46454 20.8841 0.462617 17.5 0.458374ZM24.875 48.1009L18.6062 44.9788C18.2631 44.8059 17.8842 44.7158 17.5 44.7158C17.1158 44.7158 16.7369 44.8059 16.3937 44.9788L10.125 48.1009V33.2034C11.6809 33.9381 13.3382 34.4353 15.0417 34.6784V37.3334C15.0417 37.9854 15.3007 38.6107 15.7617 39.0717C16.2227 39.5327 16.848 39.7917 17.5 39.7917C18.152 39.7917 18.7773 39.5327 19.2383 39.0717C19.6993 38.6107 19.9583 37.9854 19.9583 37.3334V34.6784C21.6617 34.4353 23.3191 33.9381 24.875 33.2034V48.1009ZM17.5 29.9584C15.0689 29.9584 12.6925 29.2375 10.6711 27.8869C8.64976 26.5362 7.07431 24.6165 6.14398 22.3705C5.21365 20.1245 4.97023 17.6531 5.44451 15.2687C5.91879 12.8844 7.08946 10.6942 8.80848 8.97519C10.5275 7.25617 12.7177 6.0855 15.102 5.61122C17.4864 5.13694 19.9578 5.38036 22.2038 6.31069C24.4498 7.24101 26.3695 8.81647 27.7201 10.8378C29.0708 12.8592 29.7917 15.2356 29.7917 17.6667C29.7917 20.9267 28.4967 24.0531 26.1915 26.3582C23.8864 28.6634 20.7599 29.9584 17.5 29.9584Z" fill="#FFCC00"/>
</svg>
