<svg width="18" height="18" viewBox="0 0 18 18" fill="none" xmlns="http://www.w3.org/2000/svg">
<path d="M6.49984 8.16663C6.66466 8.16663 6.82578 8.11775 6.96282 8.02618C7.09986 7.93462 7.20667 7.80447 7.26974 7.6522C7.33281 7.49992 7.34932 7.33237 7.31716 7.17072C7.28501 7.00907 7.20564 6.86058 7.0891 6.74404C6.97255 6.62749 6.82407 6.54813 6.66242 6.51597C6.50076 6.48382 6.33321 6.50032 6.18094 6.56339C6.02867 6.62647 5.89852 6.73328 5.80695 6.87032C5.71538 7.00736 5.66651 7.16848 5.66651 7.33329C5.66651 7.55431 5.7543 7.76627 5.91059 7.92255C6.06687 8.07883 6.27883 8.16663 6.49984 8.16663ZM8.99984 0.666626C7.35166 0.666626 5.7405 1.15537 4.37009 2.07105C2.99968 2.98672 1.93158 4.28821 1.30084 5.81093C0.670115 7.33365 0.505087 9.0092 0.82663 10.6257C1.14817 12.2422 1.94185 13.7271 3.10728 14.8925C4.27272 16.058 5.75758 16.8516 7.37409 17.1732C8.9906 17.4947 10.6662 17.3297 12.1889 16.699C13.7116 16.0682 15.0131 15.0001 15.9288 13.6297C16.8444 12.2593 17.3332 10.6481 17.3332 8.99996C17.3332 7.90561 17.1176 6.82198 16.6988 5.81093C16.28 4.79988 15.6662 3.88122 14.8924 3.1074C14.1186 2.33358 13.1999 1.71975 12.1889 1.30096C11.1778 0.882174 10.0942 0.666626 8.99984 0.666626ZM8.99984 15.6666C7.6813 15.6666 6.39237 15.2756 5.29604 14.5431C4.19971 13.8105 3.34523 12.7694 2.84064 11.5512C2.33606 10.333 2.20404 8.99256 2.46127 7.69936C2.71851 6.40615 3.35345 5.21826 4.2858 4.28591C5.21815 3.35356 6.40603 2.71863 7.69924 2.46139C8.99245 2.20416 10.3329 2.33618 11.5511 2.84076C12.7692 3.34535 13.8104 4.19983 14.543 5.29616C15.2755 6.39249 15.6665 7.68142 15.6665 8.99996C15.6665 10.7681 14.9641 12.4638 13.7139 13.714C12.4636 14.9642 10.768 15.6666 8.99984 15.6666ZM11.4998 9.83329H6.49984C6.27883 9.83329 6.06687 9.92109 5.91059 10.0774C5.7543 10.2337 5.66651 10.4456 5.66651 10.6666C5.66651 11.5507 6.0177 12.3985 6.64282 13.0236C7.26794 13.6488 8.11579 14 8.99984 14C9.8839 14 10.7317 13.6488 11.3569 13.0236C11.982 12.3985 12.3332 11.5507 12.3332 10.6666C12.3332 10.4456 12.2454 10.2337 12.0891 10.0774C11.9328 9.92109 11.7209 9.83329 11.4998 9.83329ZM8.99984 12.3333C8.70757 12.333 8.42052 12.2558 8.16748 12.1096C7.91444 11.9633 7.70431 11.7531 7.55817 11.5H10.4415C10.2954 11.7531 10.0852 11.9633 9.83221 12.1096C9.57917 12.2558 9.29211 12.333 8.99984 12.3333ZM11.4998 6.49996C11.335 6.49996 11.1739 6.54883 11.0369 6.6404C10.8998 6.73197 10.793 6.86212 10.7299 7.01439C10.6669 7.16666 10.6504 7.33422 10.6825 7.49587C10.7147 7.65752 10.794 7.806 10.9106 7.92255C11.0271 8.03909 11.1756 8.11846 11.3373 8.15061C11.4989 8.18277 11.6665 8.16627 11.8187 8.10319C11.971 8.04012 12.1012 7.93331 12.1927 7.79627C12.2843 7.65923 12.3332 7.49811 12.3332 7.33329C12.3332 7.11228 12.2454 6.90032 12.0891 6.74404C11.9328 6.58776 11.7209 6.49996 11.4998 6.49996Z" fill="#96969C"/>
</svg>
