<svg width="21" height="21" viewBox="0 0 21 21" fill="none" xmlns="http://www.w3.org/2000/svg">
<path d="M13.6252 9.45825H11.5418V5.29158C11.5418 5.01532 11.4321 4.75037 11.2367 4.55502C11.0414 4.35967 10.7764 4.24992 10.5002 4.24992C10.2239 4.24992 9.95895 4.35967 9.7636 4.55502C9.56825 4.75037 9.4585 5.01532 9.4585 5.29158V10.4999C9.4585 10.7762 9.56825 11.0411 9.7636 11.2365C9.95895 11.4318 10.2239 11.5416 10.5002 11.5416H13.6252C13.9014 11.5416 14.1664 11.4318 14.3617 11.2365C14.5571 11.0411 14.6668 10.7762 14.6668 10.4999C14.6668 10.2237 14.5571 9.9587 14.3617 9.76335C14.1664 9.568 13.9014 9.45825 13.6252 9.45825ZM10.5002 0.083252C8.43995 0.083252 6.42599 0.694179 4.71298 1.83878C2.99997 2.98337 1.66484 4.61024 0.876422 6.51363C0.0880095 8.41703 -0.118275 10.5115 0.283654 12.5321C0.685584 14.5527 1.67768 16.4088 3.13447 17.8656C4.59127 19.3224 6.44734 20.3145 8.46798 20.7164C10.4886 21.1184 12.5831 20.9121 14.4865 20.1237C16.3899 19.3353 18.0167 18.0001 19.1613 16.2871C20.3059 14.5741 20.9168 12.5601 20.9168 10.4999C20.9168 9.13198 20.6474 7.77744 20.1239 6.51363C19.6004 5.24982 18.8331 4.1015 17.8659 3.13422C16.8986 2.16695 15.7503 1.39966 14.4865 0.876173C13.2226 0.352687 11.8681 0.083252 10.5002 0.083252ZM10.5002 18.8333C8.85199 18.8333 7.24083 18.3445 5.87042 17.4288C4.50001 16.5132 3.4319 15.2117 2.80117 13.6889C2.17044 12.1662 2.00541 10.4907 2.32696 8.87417C2.6485 7.25766 3.44217 5.7728 4.60761 4.60736C5.77305 3.44192 7.25791 2.64825 8.87442 2.32671C10.4909 2.00516 12.1665 2.17019 13.6892 2.80092C15.2119 3.43165 16.5134 4.49976 17.4291 5.87017C18.3448 7.24058 18.8335 8.85174 18.8335 10.4999C18.8335 12.7101 17.9555 14.8297 16.3927 16.3925C14.8299 17.9553 12.7103 18.8333 10.5002 18.8333Z" fill="#757575"/>
</svg>
